<svg width="33" height="29" viewBox="0 0 33 29" fill="none" xmlns="http://www.w3.org/2000/svg">
<rect width="33" height="29" rx="3" fill="#84A966"/>
<path d="M23.474 5.60677L27.3889 9.5217C27.5538 9.68663 27.5538 9.95573 27.3889 10.1207L17.9097 19.5998L13.8819 20.0469C13.3438 20.1076 12.888 19.6519 12.9488 19.1137L13.3958 15.0859L22.875 5.60677C23.0399 5.44184 23.309 5.44184 23.474 5.60677ZM30.5052 4.61285L28.3872 2.49479C27.7274 1.83507 26.6554 1.83507 25.9913 2.49479L24.4549 4.03125C24.2899 4.19618 24.2899 4.46528 24.4549 4.63021L28.3698 8.54514C28.5347 8.71007 28.8038 8.71007 28.9687 8.54514L30.5052 7.00868C31.1649 6.34462 31.1649 5.27257 30.5052 4.61285ZM22.6667 17.0217V21.4401H8.77778V7.55122H18.7517C18.8906 7.55122 19.0208 7.49479 19.1207 7.39931L20.8568 5.66319C21.1866 5.33333 20.9523 4.77344 20.4878 4.77344H8.08333C6.93316 4.77344 6 5.7066 6 6.85677V22.1345C6 23.2847 6.93316 24.2179 8.08333 24.2179H23.3611C24.5113 24.2179 25.4444 23.2847 25.4444 22.1345V15.2856C25.4444 14.8212 24.8845 14.5911 24.5547 14.9167L22.8186 16.6528C22.7231 16.7526 22.6667 16.8828 22.6667 17.0217Z" fill="white"/>
</svg>
