<svg width="28" height="28" viewBox="0 0 28 28" fill="none" xmlns="http://www.w3.org/2000/svg">
<path d="M14.0319 0.264318C6.3646 0.247147 0.130005 6.471 0.130005 14.1344V14.1509C0.134829 14.4838 0.408415 14.7505 0.741298 14.7457C1.07478 14.7409 1.34093 14.4673 1.3361 14.1344C1.3361 6.9087 7.36782 1.10876 14.6774 1.48808C21.0733 1.82036 26.3142 7.06124 26.6465 13.4572C27.0155 20.5677 21.5374 26.4689 14.5878 26.7855C14.261 26.8006 14.0001 27.0587 14.0001 27.3862C14.0001 27.7251 14.2801 28.0055 14.6196 27.9904C22.5021 27.643 28.6871 20.6986 27.7819 12.5514C27.0745 6.18565 21.9489 1.06003 15.5831 0.352655C15.0606 0.294611 14.5431 0.265462 14.0319 0.264318ZM13.9907 4.47741C13.6584 4.48284 13.3922 4.75582 13.3971 5.0887V12.4313C12.4563 12.7684 11.9669 13.8038 12.304 14.7445C12.5603 15.461 13.2391 15.9406 14.0001 15.9436C14.7666 15.943 15.4493 15.4599 15.7044 14.7375H20.6336C20.9665 14.7423 21.2401 14.4756 21.2449 14.1427C21.2498 13.8098 20.983 13.5362 20.6501 13.5314H20.6336H15.7056C15.5235 13.0164 15.1182 12.611 14.6032 12.4289V5.0887C14.608 4.75582 14.3412 4.48223 14.0084 4.47741H13.9907ZM0.959196 15.8682C0.799258 15.8682 0.64587 15.9317 0.532777 16.0448C0.419683 16.1579 0.356148 16.3113 0.356148 16.4712C0.356148 16.6312 0.419683 16.7846 0.532777 16.8977C0.64587 17.0107 0.799258 17.0743 0.959196 17.0743C1.11913 17.0743 1.27252 17.0107 1.38562 16.8977C1.49871 16.7846 1.56224 16.6312 1.56224 16.4712C1.56224 16.3113 1.49871 16.1579 1.38562 16.0448C1.27252 15.9317 1.11913 15.8682 0.959196 15.8682ZM1.63762 18.205C1.47769 18.205 1.3243 18.2685 1.21121 18.3816C1.09811 18.4947 1.03458 18.6481 1.03458 18.808C1.03458 18.968 1.09811 19.1214 1.21121 19.2345C1.3243 19.3476 1.47769 19.4111 1.63762 19.4111C1.79756 19.4111 1.95095 19.3476 2.06404 19.2345C2.17714 19.1214 2.24067 18.968 2.24067 18.808C2.24067 18.6481 2.17714 18.4947 2.06404 18.3816C1.95095 18.2685 1.79756 18.205 1.63762 18.205ZM2.61758 20.3157C2.45764 20.3157 2.30425 20.3792 2.19116 20.4923C2.07807 20.6054 2.01453 20.7588 2.01453 20.9187C2.01453 21.0787 2.07807 21.232 2.19116 21.3451C2.30425 21.4582 2.45764 21.5218 2.61758 21.5218C2.77752 21.5218 2.9309 21.4582 3.044 21.3451C3.15709 21.232 3.22063 21.0787 3.22063 20.9187C3.22063 20.7588 3.15709 20.6054 3.044 20.4923C2.9309 20.3792 2.77752 20.3157 2.61758 20.3157ZM4.04982 22.2756C3.88988 22.2756 3.73649 22.3391 3.6234 22.4522C3.5103 22.5653 3.44677 22.7187 3.44677 22.8786C3.44677 23.0386 3.5103 23.1919 3.6234 23.305C3.73649 23.4181 3.88988 23.4817 4.04982 23.4817C4.20976 23.4817 4.36314 23.4181 4.47624 23.305C4.58933 23.1919 4.65286 23.0386 4.65286 22.8786C4.65286 22.7187 4.58933 22.5653 4.47624 22.4522C4.36314 22.3391 4.20976 22.2756 4.04982 22.2756ZM5.78358 23.934C5.62364 23.934 5.47025 23.9975 5.35716 24.1106C5.24407 24.2237 5.18053 24.3771 5.18053 24.537C5.18053 24.6969 5.24407 24.8503 5.35716 24.9634C5.47025 25.0765 5.62364 25.1401 5.78358 25.1401C5.94352 25.1401 6.09691 25.0765 6.21 24.9634C6.32309 24.8503 6.38663 24.6969 6.38663 24.537C6.38663 24.3771 6.32309 24.2237 6.21 24.1106C6.09691 23.9975 5.94352 23.934 5.78358 23.934ZM7.74349 25.2154C7.58355 25.2154 7.43016 25.279 7.31707 25.3921C7.20397 25.5052 7.14044 25.6585 7.14044 25.8185C7.14044 25.9784 7.20397 26.1318 7.31707 26.2449C7.43016 26.358 7.58355 26.4215 7.74349 26.4215C7.90342 26.4215 8.05681 26.358 8.16991 26.2449C8.283 26.1318 8.34653 25.9784 8.34653 25.8185C8.34653 25.6585 8.283 25.5052 8.16991 25.3921C8.05681 25.279 7.90342 25.2154 7.74349 25.2154ZM9.92953 26.1954C9.7696 26.1954 9.61621 26.2589 9.50312 26.372C9.39002 26.4851 9.32649 26.6385 9.32649 26.7984C9.32649 26.9584 9.39002 27.1118 9.50312 27.2249C9.61621 27.3379 9.7696 27.4015 9.92953 27.4015C10.0895 27.4015 10.2429 27.3379 10.356 27.2249C10.469 27.1118 10.5326 26.9584 10.5326 26.7984C10.5326 26.6385 10.469 26.4851 10.356 26.372C10.2429 26.2589 10.0895 26.1954 9.92953 26.1954ZM12.2663 26.7231C12.1064 26.7231 11.953 26.7866 11.8399 26.8997C11.7268 27.0128 11.6633 27.1662 11.6633 27.3261C11.6633 27.486 11.7268 27.6394 11.8399 27.7525C11.953 27.8656 12.1064 27.9291 12.2663 27.9291C12.4263 27.9291 12.5797 27.8656 12.6928 27.7525C12.8059 27.6394 12.8694 27.486 12.8694 27.3261C12.8694 27.1662 12.8059 27.0128 12.6928 26.8997C12.5797 26.7866 12.4263 26.7231 12.2663 26.7231Z" fill="white"/>
</svg>
