<svg width="28" height="30" viewBox="0 0 28 30" fill="none" xmlns="http://www.w3.org/2000/svg">
<path d="M0.132446 0.00915527V25.6117C0.132446 27.9508 1.67994 29.9463 3.71908 29.9871C3.73988 29.9897 3.76083 29.991 3.7818 29.9909C3.80214 29.9909 3.82245 29.9896 3.84263 29.9871C3.90413 29.9859 3.96452 29.9814 4.02509 29.9766V29.9909H23.4883C25.7286 29.9909 27.5149 28.2721 27.7687 26.0982H27.8676V25.6117C27.8676 23.5337 26.4076 21.7903 24.4615 21.3455V0.00915527L23.0055 0.737126L22.0685 0.252446L21.0592 0.739977L20.0823 0.252446L19.1091 0.739026L18.1359 0.252446L17.1666 0.737126L16.2295 0.252446L15.2203 0.739977L14.2433 0.252446L13.2663 0.739977L12.2571 0.252446L11.32 0.737126L10.3506 0.252446L9.37368 0.739977L8.36441 0.252446L7.43116 0.735225L6.49791 0.252446L5.48484 0.741878L4.47176 0.252446L3.53091 0.739026L2.52544 0.252446L1.58839 0.737126L0.132446 0.00915527ZM2.53969 1.33965L3.54611 1.82623L4.48601 1.33965L5.48484 1.82338L6.48366 1.33965L7.43116 1.83003L8.37866 1.33965L9.38128 1.82528L10.3506 1.33965L11.3276 1.82813L12.2713 1.33965L13.2739 1.82528L14.2433 1.33965L15.2127 1.82528L16.2153 1.33965L17.159 1.82813L18.1359 1.33965L19.1091 1.82623L20.0823 1.33965L21.0516 1.82528L22.0542 1.33965L22.9979 1.82813L23.4883 1.58294V21.719V22.2056C25.375 22.2056 26.8944 23.725 26.8944 25.6117C26.8944 27.4984 25.375 29.0177 23.4883 29.0177H6.07691C6.91034 28.2056 7.43116 26.967 7.43116 25.6117C7.43116 23.7043 6.40194 22.026 4.91652 21.4491C4.87209 21.3825 4.81189 21.3278 4.74127 21.29C4.67064 21.2522 4.59178 21.2324 4.51167 21.2324C4.43781 21.2329 4.36501 21.2501 4.29879 21.2828C4.15009 21.2579 3.99936 21.2393 3.84453 21.2362C3.82372 21.2336 3.80277 21.2324 3.7818 21.2324C3.76147 21.2324 3.74115 21.2337 3.72098 21.2362C2.6698 21.2566 1.75116 21.7984 1.10561 22.6371V1.58294L1.59599 1.82813L2.53969 1.33965ZM4.02509 5.66186V6.63502H14.7299V5.66186H4.02509ZM17.6494 5.66186V6.63502H20.5688V5.66186H17.6494ZM4.02509 8.58134V9.5545H12.7835V8.58134H4.02509ZM17.6494 8.58134V9.5545H20.5688V8.58134H17.6494ZM4.02509 11.5008V12.474H14.7299V11.5008H4.02509ZM17.6494 11.5008V12.474H20.5688V11.5008H17.6494ZM4.02509 14.4203V15.3935H12.7835V14.4203H4.02509ZM17.6494 14.4203V15.3935H20.5688V14.4203H17.6494ZM4.02509 17.3398V18.313H14.7299V17.3398H4.02509ZM17.6494 17.3398V18.313H20.5688V17.3398H17.6494ZM6.458 21.2324C6.32895 21.2324 6.20518 21.2837 6.11393 21.375C6.02268 21.4662 5.97142 21.59 5.97142 21.719C5.97142 21.8481 6.02268 21.9718 6.11393 22.0631C6.20518 22.1543 6.32895 22.2056 6.458 22.2056C6.58705 22.2056 6.71081 22.1543 6.80206 22.0631C6.89331 21.9718 6.94458 21.8481 6.94458 21.719C6.94458 21.59 6.89331 21.4662 6.80206 21.375C6.71081 21.2837 6.58705 21.2324 6.458 21.2324ZM8.40432 21.2324C8.27527 21.2324 8.15151 21.2837 8.06026 21.375C7.969 21.4662 7.91774 21.59 7.91774 21.719C7.91774 21.8481 7.969 21.9718 8.06026 22.0631C8.15151 22.1543 8.27527 22.2056 8.40432 22.2056C8.53337 22.2056 8.65713 22.1543 8.74839 22.0631C8.83964 21.9718 8.8909 21.8481 8.8909 21.719C8.8909 21.59 8.83964 21.4662 8.74839 21.375C8.65713 21.2837 8.53337 21.2324 8.40432 21.2324ZM10.3506 21.2324C10.2216 21.2324 10.0978 21.2837 10.0066 21.375C9.91533 21.4662 9.86406 21.59 9.86406 21.719C9.86406 21.8481 9.91533 21.9718 10.0066 22.0631C10.0978 22.1543 10.2216 22.2056 10.3506 22.2056C10.4797 22.2056 10.6035 22.1543 10.6947 22.0631C10.786 21.9718 10.8372 21.8481 10.8372 21.719C10.8372 21.59 10.786 21.4662 10.6947 21.375C10.6035 21.2837 10.4797 21.2324 10.3506 21.2324ZM12.297 21.2324C12.1679 21.2324 12.0442 21.2837 11.9529 21.375C11.8617 21.4662 11.8104 21.59 11.8104 21.719C11.8104 21.8481 11.8617 21.9718 11.9529 22.0631C12.0442 22.1543 12.1679 22.2056 12.297 22.2056C12.426 22.2056 12.5498 22.1543 12.641 22.0631C12.7323 21.9718 12.7835 21.8481 12.7835 21.719C12.7835 21.59 12.7323 21.4662 12.641 21.375C12.5498 21.2837 12.426 21.2324 12.297 21.2324ZM14.2433 21.2324C14.1142 21.2324 13.9905 21.2837 13.8992 21.375C13.808 21.4662 13.7567 21.59 13.7567 21.719C13.7567 21.8481 13.808 21.9718 13.8992 22.0631C13.9905 22.1543 14.1142 22.2056 14.2433 22.2056C14.3723 22.2056 14.4961 22.1543 14.5874 22.0631C14.6786 21.9718 14.7299 21.8481 14.7299 21.719C14.7299 21.59 14.6786 21.4662 14.5874 21.375C14.4961 21.2837 14.3723 21.2324 14.2433 21.2324ZM16.1896 21.2324C16.0606 21.2324 15.9368 21.2837 15.8455 21.375C15.7543 21.4662 15.703 21.59 15.703 21.719C15.703 21.8481 15.7543 21.9718 15.8455 22.0631C15.9368 22.1543 16.0606 22.2056 16.1896 22.2056C16.3187 22.2056 16.4424 22.1543 16.5337 22.0631C16.6249 21.9718 16.6762 21.8481 16.6762 21.719C16.6762 21.59 16.6249 21.4662 16.5337 21.375C16.4424 21.2837 16.3187 21.2324 16.1896 21.2324ZM18.1359 21.2324C18.0069 21.2324 17.8831 21.2837 17.7919 21.375C17.7006 21.4662 17.6494 21.59 17.6494 21.719C17.6494 21.8481 17.7006 21.9718 17.7919 22.0631C17.8831 22.1543 18.0069 22.2056 18.1359 22.2056C18.265 22.2056 18.3888 22.1543 18.48 22.0631C18.5713 21.9718 18.6225 21.8481 18.6225 21.719C18.6225 21.59 18.5713 21.4662 18.48 21.375C18.3888 21.2837 18.265 21.2324 18.1359 21.2324ZM20.0823 21.2324C19.9532 21.2324 19.8294 21.2837 19.7382 21.375C19.6469 21.4662 19.5957 21.59 19.5957 21.719C19.5957 21.8481 19.6469 21.9718 19.7382 22.0631C19.8294 22.1543 19.9532 22.2056 20.0823 22.2056C20.2113 22.2056 20.3351 22.1543 20.4263 22.0631C20.5176 21.9718 20.5688 21.8481 20.5688 21.719C20.5688 21.59 20.5176 21.4662 20.4263 21.375C20.3351 21.2837 20.2113 21.2324 20.0823 21.2324ZM22.0286 21.2324C21.8995 21.2324 21.7758 21.2837 21.6845 21.375C21.5933 21.4662 21.542 21.59 21.542 21.719C21.542 21.8481 21.5933 21.9718 21.6845 22.0631C21.7758 22.1543 21.8995 22.2056 22.0286 22.2056C22.1576 22.2056 22.2814 22.1543 22.3726 22.0631C22.4639 21.9718 22.5152 21.8481 22.5152 21.719C22.5152 21.59 22.4639 21.4662 22.3726 21.375C22.2814 21.2837 22.1576 21.2324 22.0286 21.2324ZM3.7818 22.2056C5.20496 22.2056 6.458 23.6756 6.458 25.6117C6.458 27.5477 5.20496 29.0177 3.7818 29.0177C2.35864 29.0177 1.10561 27.5477 1.10561 25.6117C1.10561 23.6756 2.35864 22.2056 3.7818 22.2056ZM3.7818 24.6385C3.58823 24.6385 3.40258 24.741 3.26571 24.9235C3.12883 25.106 3.05193 25.3536 3.05193 25.6117C3.05193 25.8698 3.12883 26.1173 3.26571 26.2998C3.40258 26.4823 3.58823 26.5848 3.7818 26.5848C3.97538 26.5848 4.16102 26.4823 4.2979 26.2998C4.43478 26.1173 4.51167 25.8698 4.51167 25.6117C4.51167 25.3536 4.43478 25.106 4.2979 24.9235C4.16102 24.741 3.97538 24.6385 3.7818 24.6385Z" fill="white"/>
</svg>
