<svg width="33" height="29" viewBox="0 0 33 29" fill="none" xmlns="http://www.w3.org/2000/svg">
<rect width="33" height="29" rx="3" fill="#D34141"/>
<path d="M8.35714 22.9375C8.35714 23.4845 8.57162 24.0091 8.95339 24.3959C9.33516 24.7827 9.85295 25 10.3929 25H22.6071C23.147 25 23.6648 24.7827 24.0466 24.3959C24.4284 24.0091 24.6429 23.4845 24.6429 22.9375V8.50001H8.35714V22.9375ZM19.8929 11.9375C19.8929 11.7552 19.9643 11.5803 20.0916 11.4514C20.2189 11.3224 20.3915 11.25 20.5714 11.25C20.7514 11.25 20.924 11.3224 21.0513 11.4514C21.1785 11.5803 21.25 11.7552 21.25 11.9375V21.5625C21.25 21.7448 21.1785 21.9197 21.0513 22.0486C20.924 22.1776 20.7514 22.25 20.5714 22.25C20.3915 22.25 20.2189 22.1776 20.0916 22.0486C19.9643 21.9197 19.8929 21.7448 19.8929 21.5625V11.9375ZM15.8214 11.9375C15.8214 11.7552 15.8929 11.5803 16.0202 11.4514C16.1474 11.3224 16.32 11.25 16.5 11.25C16.68 11.25 16.8526 11.3224 16.9798 11.4514C17.1071 11.5803 17.1786 11.7552 17.1786 11.9375V21.5625C17.1786 21.7448 17.1071 21.9197 16.9798 22.0486C16.8526 22.1776 16.68 22.25 16.5 22.25C16.32 22.25 16.1474 22.1776 16.0202 22.0486C15.8929 21.9197 15.8214 21.7448 15.8214 21.5625V11.9375ZM11.75 11.9375C11.75 11.7552 11.8215 11.5803 11.9487 11.4514C12.076 11.3224 12.2486 11.25 12.4286 11.25C12.6085 11.25 12.7811 11.3224 12.9084 11.4514C13.0357 11.5803 13.1071 11.7552 13.1071 11.9375V21.5625C13.1071 21.7448 13.0357 21.9197 12.9084 22.0486C12.7811 22.1776 12.6085 22.25 12.4286 22.25C12.2486 22.25 12.076 22.1776 11.9487 22.0486C11.8215 21.9197 11.75 21.7448 11.75 21.5625V11.9375ZM25.3214 4.37501H20.2321L19.8335 3.57149C19.749 3.39971 19.6189 3.25521 19.4579 3.15425C19.2968 3.05329 19.1111 2.99987 18.9217 3.00001H14.0741C13.8851 2.99927 13.6997 3.05249 13.5392 3.15356C13.3787 3.25464 13.2495 3.39948 13.1665 3.57149L12.7679 4.37501H7.67857C7.4986 4.37501 7.32601 4.44744 7.19875 4.57637C7.07149 4.7053 7 4.88017 7 5.06251V6.43751C7 6.61984 7.07149 6.79471 7.19875 6.92364C7.32601 7.05257 7.4986 7.12501 7.67857 7.12501H25.3214C25.5014 7.12501 25.674 7.05257 25.8013 6.92364C25.9285 6.79471 26 6.61984 26 6.43751V5.06251C26 4.88017 25.9285 4.7053 25.8013 4.57637C25.674 4.44744 25.5014 4.37501 25.3214 4.37501Z" fill="white"/>
</svg>
